<svg xmlns="http://www.w3.org/2000/svg" version="1.1" xmlns:xlink="http://www.w3.org/1999/xlink" xmlns:svgjs="http://svgjs.dev/svgjs" width="1000" height="623" viewBox="0 0 1000 623"><g transform="matrix(1,0,0,1,-0.6060606060606233,98.64847736474042)"><svg viewBox="0 0 396 247" data-background-color="#fffbf4" preserveAspectRatio="xMidYMid meet" height="623" width="1000" xmlns="http://www.w3.org/2000/svg" xmlns:xlink="http://www.w3.org/1999/xlink"><g id="tight-bounds" transform="matrix(1,0,0,1,0.2400000000000091,-0.09999999999999432)"><svg viewBox="0 0 395.52 247.2" height="247.2" width="395.52"><g><svg></svg></g><g><svg viewBox="0 0 395.52 247.2" height="247.2" width="395.52"><g transform="matrix(1,0,0,1,75.54432,79.92247669959329)"><svg viewBox="0 0 244.43135999999998 87.3550466008134" height="87.3550466008134" width="244.43135999999998"><g><svg viewBox="0 0 244.43135999999998 87.3550466008134" height="87.3550466008134" width="244.43135999999998"><g><svg viewBox="0 0 244.43135999999998 87.3550466008134" height="87.3550466008134" width="244.43135999999998"><g transform="matrix(1,0,0,1,0,31.891825504054925)"><svg viewBox="0 0 244.43135999999998 55.46322109675847" height="55.46322109675847" width="244.43135999999998"><g id="textblocktransform"><svg viewBox="0 0 244.43135999999998 55.46322109675847" height="55.46322109675847" width="244.43135999999998" id="textblock"><g><svg viewBox="0 0 244.43135999999998 55.46322109675847" height="55.46322109675847" width="244.43135999999998"><g transform="matrix(1,0,0,1,0,0)"><svg width="244.43135999999998" viewBox="1.1 -35.05 205.13 46.55" height="55.46322109675847" data-palette-color="#000000"><path d="M26.05 0L1.1 0 1.1-0.5 2.25-0.95Q3.1-1.3 3.43-1.88 3.75-2.45 3.75-3.45L3.75-3.45 3.75-29.55Q3.75-30.55 3.48-31.13 3.2-31.7 2.25-32.05L2.25-32.05 1.1-32.5 1.1-33 25.05-33 25.35-25.3 24.85-25.3 22.7-30Q22.25-30.9 21.75-31.45 21.25-32 20.25-32L20.25-32 11.25-32 11.25-17.55 16.6-17.55Q17.6-17.55 18.13-18.07 18.65-18.6 19.05-19.5L19.05-19.5 20.05-21.5 20.55-21.5 20.55-12.5 20.05-12.5 19.05-14.6Q18.6-15.5 18.1-16.03 17.6-16.55 16.6-16.55L16.6-16.55 11.25-16.55 11.25-1 21.35-1Q22.35-1 22.9-1.53 23.45-2.05 23.8-3L23.8-3 25.85-7.7 26.35-7.7 26.05 0ZM41.15 0.75L41.15 0.75Q37.75 0.75 34.97-0.73 32.2-2.2 30.57-5.03 28.95-7.85 28.95-11.95L28.95-11.95Q28.95-16 30.72-18.88 32.5-21.75 35.47-23.28 38.45-24.8 42-24.8L42-24.8Q44.9-24.8 46.9-23.85 48.9-22.9 49.95-21.38 51-19.85 51-18.2L51-18.2Q51-16.8 50.15-16.03 49.3-15.25 47.95-15.25L47.95-15.25Q46.5-15.25 45.6-16.3 44.7-17.35 44.55-19.05L44.55-19.05Q44.5-20.15 44.6-20.93 44.7-21.7 44.6-22.5L44.6-22.5Q44.4-23.35 43.97-23.63 43.55-23.9 42.8-23.9L42.8-23.9Q39.75-23.9 38.07-21.25 36.4-18.6 36.4-12.8L36.4-12.8Q36.4-7.75 38.27-5.08 40.15-2.4 44.05-2.4L44.05-2.4Q46.4-2.4 47.85-3.25 49.3-4.1 50.65-5.8L50.65-5.8 51.15-5.4Q49.9-2.45 47.3-0.85 44.7 0.75 41.15 0.75ZM66.1 0.75L66.1 0.75Q62.3 0.75 59.5-0.83 56.7-2.4 55.17-5.3 53.65-8.2 53.65-12.1L53.65-12.1Q53.65-16 55.27-18.85 56.9-21.7 59.72-23.25 62.55-24.8 66.1-24.8L66.1-24.8Q69.65-24.8 72.45-23.28 75.25-21.75 76.87-18.9 78.5-16.05 78.5-12.1L78.5-12.1Q78.5-8.15 76.97-5.28 75.45-2.4 72.67-0.83 69.9 0.75 66.1 0.75ZM66.1-0.25L66.1-0.25Q67.85-0.25 68.9-1.25 69.95-2.25 70.42-4.8 70.9-7.35 70.9-12L70.9-12Q70.9-16.7 70.42-19.25 69.95-21.8 68.9-22.8 67.85-23.8 66.1-23.8L66.1-23.8Q64.35-23.8 63.27-22.8 62.2-21.8 61.72-19.25 61.25-16.7 61.25-12L61.25-12Q61.25-7.35 61.72-4.8 62.2-2.25 63.27-1.25 64.35-0.25 66.1-0.25ZM94.29-12L81.69-12 81.69-13.35 94.29-13.35 94.29-12ZM108.14 0.9L108.14 0.9Q105.39 0.9 102.54 0.23 99.69-0.45 97.79-1.55L97.79-1.55 98.04-8.35 98.54-8.35 100.09-5.1Q100.79-3.7 101.59-2.63 102.39-1.55 103.79-0.95L103.79-0.95Q104.79-0.45 105.72-0.28 106.64-0.1 107.79-0.1L107.79-0.1Q110.84-0.1 112.62-1.75 114.39-3.4 114.39-6L114.39-6Q114.39-8.45 113.19-9.83 111.99-11.2 109.34-12.5L109.34-12.5 107.29-13.4Q102.99-15.3 100.57-17.78 98.14-20.25 98.14-24.35L98.14-24.35Q98.14-27.3 99.67-29.45 101.19-31.6 103.92-32.75 106.64-33.9 110.29-33.9L110.29-33.9Q112.94-33.9 115.32-33.2 117.69-32.5 119.44-31.3L119.44-31.3 119.14-25.3 118.64-25.3 116.59-29.05Q115.74-30.8 114.89-31.53 114.04-32.25 112.94-32.55L112.94-32.55Q112.29-32.75 111.74-32.83 111.19-32.9 110.34-32.9L110.34-32.9Q107.79-32.9 106.04-31.43 104.29-29.95 104.29-27.45L104.29-27.45Q104.29-24.9 105.64-23.38 106.99-21.85 109.59-20.65L109.59-20.65 111.89-19.65Q116.69-17.55 118.79-15.18 120.89-12.8 120.89-9.05L120.89-9.05Q120.89-4.65 117.57-1.88 114.24 0.9 108.14 0.9ZM135.19 0L123.49 0 123.49-0.5 124.09-0.7Q125.89-1.3 125.89-3.2L125.89-3.2 125.89-29.9Q125.89-30.95 125.54-31.45 125.19-31.95 124.19-32.2L124.19-32.2 123.44-32.4 123.44-32.9 132.24-35.05 133.04-34.6 132.84-27.55 132.84-21.3Q134.59-22.75 136.61-23.78 138.64-24.8 141.09-24.8L141.09-24.8Q144.34-24.8 146.26-22.95 148.19-21.1 148.19-17.25L148.19-17.25 148.19-3.15Q148.19-2.15 148.59-1.55 148.99-0.95 149.99-0.65L149.99-0.65 150.39-0.5 150.39 0 138.69 0 138.69-0.5 139.29-0.65Q141.09-1.25 141.09-3.2L141.09-3.2 141.09-18.9Q141.09-20.9 140.41-21.65 139.74-22.4 138.04-22.4L138.04-22.4Q136.94-22.4 135.64-21.98 134.34-21.55 132.99-20.5L132.99-20.5 132.99-3.1Q132.99-1.15 134.79-0.6L134.79-0.6 135.19-0.5 135.19 0ZM164.99 0.75L164.99 0.75Q161.19 0.75 158.39-0.83 155.59-2.4 154.06-5.3 152.54-8.2 152.54-12.1L152.54-12.1Q152.54-16 154.16-18.85 155.79-21.7 158.61-23.25 161.44-24.8 164.99-24.8L164.99-24.8Q168.54-24.8 171.34-23.28 174.14-21.75 175.76-18.9 177.39-16.05 177.39-12.1L177.39-12.1Q177.39-8.15 175.86-5.28 174.34-2.4 171.56-0.83 168.79 0.75 164.99 0.75ZM164.99-0.25L164.99-0.25Q166.74-0.25 167.79-1.25 168.84-2.25 169.31-4.8 169.79-7.35 169.79-12L169.79-12Q169.79-16.7 169.31-19.25 168.84-21.8 167.79-22.8 166.74-23.8 164.99-23.8L164.99-23.8Q163.24-23.8 162.16-22.8 161.09-21.8 160.61-19.25 160.14-16.7 160.14-12L160.14-12Q160.14-7.35 160.61-4.8 161.09-2.25 162.16-1.25 163.24-0.25 164.99-0.25ZM191.73 11.5L179.58 11.5 179.58 11 180.18 10.8Q182.03 10.3 182.03 8.4L182.03 8.4 182.03-18.8Q182.03-19.9 181.66-20.45 181.28-21 180.28-21.2L180.28-21.2 179.58-21.35 179.58-21.85 188.08-24.75 188.58-24.25 189.03-22.7Q190.68-23.7 192.71-24.25 194.73-24.8 196.88-24.8L196.88-24.8Q201.18-24.8 203.71-21.53 206.23-18.25 206.23-12.15L206.23-12.15Q206.23-6.15 203.46-2.7 200.68 0.75 195.63 0.75L195.63 0.75Q191.68 0.75 188.98-0.4L188.98-0.4 188.98 8.25Q188.98 10.25 190.78 10.75L190.78 10.75 191.73 11 191.73 11.5ZM193.23-0.7L193.23-0.7Q195.73-0.7 197.21-3.3 198.68-5.9 198.68-11.95L198.68-11.95Q198.68-18 197.28-20.43 195.88-22.85 193.23-22.85L193.23-22.85Q191.38-22.85 189.13-21.65L189.13-21.65 189.13-1.5Q191.03-0.7 193.23-0.7Z" opacity="1" transform="matrix(1,0,0,1,0,0)" fill="#000000" class="wordmark-text-0" data-fill-palette-color="primary" id="text-0"></path></svg></g></svg></g></svg></g></svg></g><g transform="matrix(1,0,0,1,84.45103488,0)"><svg viewBox="0 0 75.52929024 23.798410428731543" height="23.798410428731543" width="75.52929024"><g><svg xmlns="http://www.w3.org/2000/svg" xmlns:xlink="http://www.w3.org/1999/xlink" version="1.1" x="0" y="0" viewBox="10.82559422799137 38.092 80.66622667001384 25.417" enable-background="new 0 0 100 100" xml:space="preserve" height="23.798410428731543" width="75.52929024" class="icon-icon-0" data-fill-palette-color="accent" id="icon-0"></svg></g></svg></g><g></g></svg></g></svg></g></svg></g><g><path d="M87.051 71.829A122.216 122.216 0 0 1 308.469 71.829L305.377 71.829A119.124 119.124 0 0 0 90.143 71.829L87.051 71.829M87.051 175.371A122.216 122.216 0 0 0 308.469 175.371L305.377 175.371A119.124 119.124 0 0 1 90.143 175.371L87.051 175.371" fill="#000000" stroke="transparent" data-fill-palette-color="tertiary"></path></g></svg></g><defs></defs><mask id="38feef40-07cb-43ac-98d4-7599dff0abf9"><g id="SvgjsG1004"><svg viewBox="0 0 395.52 247.2" height="247.2" width="395.52"><g><svg></svg></g><g><svg viewBox="0 0 395.52 247.2" height="247.2" width="395.52"><g transform="matrix(1,0,0,1,75.54432,79.92247669959329)"><svg viewBox="0 0 244.43135999999998 87.3550466008134" height="87.3550466008134" width="244.43135999999998"><g><svg viewBox="0 0 244.43135999999998 87.3550466008134" height="87.3550466008134" width="244.43135999999998"><g><svg viewBox="0 0 244.43135999999998 87.3550466008134" height="87.3550466008134" width="244.43135999999998"><g transform="matrix(1,0,0,1,0,31.891825504054925)"><svg viewBox="0 0 244.43135999999998 55.46322109675847" height="55.46322109675847" width="244.43135999999998"><g id="SvgjsG1003"><svg viewBox="0 0 244.43135999999998 55.46322109675847" height="55.46322109675847" width="244.43135999999998" id="SvgjsSvg1002"><g><svg viewBox="0 0 244.43135999999998 55.46322109675847" height="55.46322109675847" width="244.43135999999998"><g transform="matrix(1,0,0,1,0,0)"><svg width="244.43135999999998" viewBox="1.1 -35.05 205.13 46.55" height="55.46322109675847" data-palette-color="#000000"></svg></g></svg></g></svg></g></svg></g><g transform="matrix(1,0,0,1,84.45103488,0)"><svg viewBox="0 0 75.52929024 23.798410428731543" height="23.798410428731543" width="75.52929024"><g><svg xmlns="http://www.w3.org/2000/svg" xmlns:xlink="http://www.w3.org/1999/xlink" version="1.1" x="0" y="0" viewBox="10.82559422799137 38.092 80.66622667001384 25.417" enable-background="new 0 0 100 100" xml:space="preserve" height="23.798410428731543" width="75.52929024" class="icon-icon-0" data-fill-palette-color="accent" id="SvgjsSvg1000"><path d="M31.376 42.592c-7.333 0-11.834 2.75-11.834 4.625s1.584 3.625 9.667 3.625 24.5-10.25 41.25-10.25c17.083 0.002 17.083 8.583 17.083 8.583s-2.254-1.958-13.583-1.958c-16.917 0-32.667 9.125-43.874 9.125-11.209 0-14.108-5.008-14.108-8.925 0-3.375 4.399-9.325 15.232-9.325s12.667 6.583 12.667 6.583S38.709 42.592 31.376 42.592zM10.876 48.759c0 0-2.167 14.75 21.916 14.75 24.084 0 33.251-10.167 51.918-10.167 5.654 0.12 6.666 2.792 6.666 2.792s2.25-7.375-13.084-7.375c-15.332 0-33.308 9.917-47.832 9.917C15.935 58.676 10.876 48.759 10.876 48.759z" fill="white"></path></svg></g></svg></g><g></g></svg></g></svg></g></svg></g><g></g></svg></g><defs><mask></mask></defs></svg></g></mask><linearGradient x1="0.054" x2="0.941" y1="0.5" y2="0.5" id="28c2c4e0-6b11-4084-bae8-6f854e90438b"><stop stop-color="#864d25" offset="0"></stop><stop stop-color="#f1c4b3" offset="0.498"></stop><stop stop-color="#864d25" offset="1"></stop></linearGradient><rect width="395.52" height="247.2" fill="url(#28c2c4e0-6b11-4084-bae8-6f854e90438b)" mask="url(#38feef40-07cb-43ac-98d4-7599dff0abf9)" data-fill-palette-color="accent"></rect></svg><rect width="395.52" height="247.2" fill="none" stroke="none" visibility="hidden"></rect></g></svg></g></svg>